<svg id="Layer_1" data-name="Layer 1" xmlns="http://www.w3.org/2000/svg" viewBox="0 0 451.45 178.75"><defs><style>.cls-1{fill:#ed1c24;}.cls-2{fill:#006dff;}.cls-3{fill:#00ba00;}.cls-4{fill:red;}.cls-5{fill:blue;}.cls-6{fill:#39b54a;}</style></defs><path class="cls-1" d="M189.47,360.57A78,78,0,0,1,173.84,356,57.45,57.45,0,0,1,161,348.69l16-20a62.43,62.43,0,0,0,14.87,7,49,49,0,0,0,14.78,2.46q9.09,0,14.11-2t5-5.64a6,6,0,0,0-2.18-5,13.35,13.35,0,0,0-5.59-2.42,91.62,91.62,0,0,0-9.56-1.28l-3.46-.37-3.55-.38a6.47,6.47,0,0,0-.81-.15,7.51,7.51,0,0,0-.8,0,106.35,106.35,0,0,1-17.62-3.51,22.64,22.64,0,0,1-11.23-8q-4.59-5.93-4.59-17.2a27.82,27.82,0,0,1,18.47-27.51q9-3.64,21.79-3.65a74.65,74.65,0,0,1,14.92,1.52,77.15,77.15,0,0,1,14.25,4.35,69.09,69.09,0,0,1,12.6,6.82L233,292.51a62.79,62.79,0,0,0-13.45-5.59,49.51,49.51,0,0,0-13.45-2q-7.86,0-12.22,1.8t-4.36,5a4.24,4.24,0,0,0,2.32,3.83,17.13,17.13,0,0,0,5.78,2c2.3.41,5.67.87,10.09,1.38l1.7.18,1.71.19a3.15,3.15,0,0,0,.85.1,3.63,3.63,0,0,1,.85.09,119.65,119.65,0,0,1,18.66,3.41,24.26,24.26,0,0,1,12.27,8.34q5.07,6.25,5.07,18.38,0,10.23-4.93,17.52T229.45,358.3q-9.48,3.84-22.83,3.84A92.18,92.18,0,0,1,189.47,360.57Z" transform="translate(-160.96 -222.98)"/><path class="cls-2" d="M239.54,223h26V360.72h-26Zm56.84,78.15q0-7.19-4.13-11.17t-11.69-4q-7.2,0-11.13,4t-3.94,11.32l-2-21.78q4.44-9.29,10.65-13.93T289.74,261q15.54,0,24.07,10.47t8.52,29.6v59.68H296.38Z" transform="translate(-160.96 -222.98)"/><path class="cls-3" d="M334.46,357.12A33.6,33.6,0,0,1,320,342.48q-5-9.62-5-23.16v-16q0-13.35,5-22.87a33.44,33.44,0,0,1,14.49-14.5q9.53-5,23-5t23,5a33.51,33.51,0,0,1,14.5,14.5q5,9.51,5,22.87v16.3q0,13.44-5,23a33.82,33.82,0,0,1-14.5,14.54q-9.51,5-23,5T334.46,357.12Zm35.1-24.58q4.35-4.6,4.35-12.93v-16.3q0-8.24-4.35-12.79T357.34,286q-7.77,0-12.08,4.54T341,303.31v16.3q0,8.33,4.26,12.93t12.13,4.59Q365.2,337.13,369.56,332.54Z" transform="translate(-160.96 -222.98)"/><path class="cls-4" d="M393.48,262.39h26v138.3h-26Zm33.91,95.34a25.94,25.94,0,0,1-9.28-12.45l1.33-22.45a18.24,18.24,0,0,0,1.7,8.24,11.92,11.92,0,0,0,5,5.21,16.19,16.19,0,0,0,7.91,1.8q7.31,0,11.32-4.83t4-13.64V304q0-9-4-14T434,285a15.87,15.87,0,0,0-7.91,1.85,12.05,12.05,0,0,0-5,5.35,19.32,19.32,0,0,0-1.7,8.52l-2-21.78a33,33,0,0,1,10.46-13.31A23.94,23.94,0,0,1,442.27,261q10.41,0,17.85,5t11.32,14.68q3.88,9.66,3.89,23.21v15.73q0,13.44-3.89,23a31.19,31.19,0,0,1-11.32,14.54q-7.44,5-17.85,5A25.16,25.16,0,0,1,427.39,357.73Z" transform="translate(-160.96 -222.98)"/><path class="cls-5" d="M540.55,284.37l-43.48,52.76h46v23.59h-77V338.36L510.81,286H467.42V262.39h73.13Z" transform="translate(-160.96 -222.98)"/><path class="cls-6" d="M521.56,262.39H546l33.06,85.44-16.39,20.94Zm90.85,0L568.64,383.74a31.33,31.33,0,0,1-6.11,10.65,20.57,20.57,0,0,1-9,5.64,43.94,43.94,0,0,1-13.21,1.7h-5.78V376.54h5.78a12.36,12.36,0,0,0,7-1.85,11.27,11.27,0,0,0,4.22-6L588,262.39Z" transform="translate(-160.96 -222.98)"/></svg>